<?xml version="1.0" encoding="UTF-8"?>
<svg width="56px" height="40px" viewBox="0 0 56 40" version="1.1" xmlns="http://www.w3.org/2000/svg" xmlns:xlink="http://www.w3.org/1999/xlink">
    <!-- Generator: Sketch 53.2 (72643) - https://sketchapp.com -->
    <title>Planner</title>
    <desc>Created with Sketch.</desc>
    <g id="Page-1" stroke="none" stroke-width="1" fill="none" fill-rule="evenodd">
        <g id="Cookbook" transform="translate(-289.000000, -660.000000)">
            <g id="Bottom-Buttons" transform="translate(0.000000, 630.000000)">
                <g id="Bottom-Row-Buttons" transform="translate(14.000000, 20.000000)">
                    <g id="Planner" transform="translate(274.000000, 10.000000)">
                        <g transform="translate(1.000000, 0.000000)">
                            <path d="M0,0 L56,0 L56,40 L0,40 L0,0 Z M49,5 L49,11 L55,11 L55,5 L49,5 Z M41,5 L41,11 L48,11 L48,5 L41,5 Z M33,5 L33,11 L40,11 L40,5 L33,5 Z M25,5 L25,11 L32,11 L32,5 L25,5 Z M17,5 L17,11 L24,11 L24,5 L17,5 Z M9,5 L9,11 L16,11 L16,5 L9,5 Z M1,5 L1,11 L8,11 L8,5 L1,5 Z M49,12 L49,18 L55,18 L55,12 L49,12 Z M41,12 L41,18 L48,18 L48,12 L41,12 Z M33,12 L33,18 L40,18 L40,12 L33,12 Z M25,12 L25,18 L32,18 L32,12 L25,12 Z M17,12 L17,18 L24,18 L24,12 L17,12 Z M9,12 L9,18 L16,18 L16,12 L9,12 Z M1,12 L1,18 L8,18 L8,12 L1,12 Z M49,19 L49,25 L55,25 L55,19 L49,19 Z M41,19 L41,25 L48,25 L48,19 L41,19 Z M33,19 L33,25 L40,25 L40,19 L33,19 Z M25,19 L25,25 L32,25 L32,19 L25,19 Z M17,19 L17,25 L24,25 L24,19 L17,19 Z M9,19 L9,25 L16,25 L16,19 L9,19 Z M1,19 L1,25 L8,25 L8,19 L1,19 Z M49,26 L49,32 L55,32 L55,26 L49,26 Z M41,26 L41,32 L48,32 L48,26 L41,26 Z M33,26 L33,32 L40,32 L40,26 L33,26 Z M25,26 L25,32 L32,32 L32,26 L25,26 Z M17,26 L17,32 L24,32 L24,26 L17,26 Z M9,26 L9,32 L16,32 L16,26 L9,26 Z M1,26 L1,32 L8,32 L8,26 L1,26 Z M49,33 L49,39 L55,39 L55,33 L49,33 Z M41,33 L41,39 L48,39 L48,33 L41,33 Z M33,33 L33,39 L40,39 L40,33 L33,33 Z M25,33 L25,39 L32,39 L32,33 L25,33 Z M17,33 L17,39 L24,39 L24,33 L17,33 Z M9,33 L9,39 L16,39 L16,33 L9,33 Z M1,33 L1,39 L8,39 L8,33 L1,33 Z M1,1 L1,4 L55,4 L55,1 L1,1 Z" id="Combined-Shape" fill="#000000"></path>
                            <g id="Days" transform="translate(1.000000, 5.000000)" fill="#FFFFFF" fill-opacity="0.25">
                                <rect id="Rectangle-Copy-4" x="48" y="0" width="6" height="6"></rect>
                                <rect id="Rectangle-Copy-5" x="40" y="0" width="7" height="6"></rect>
                                <rect id="Rectangle-Copy-6" x="32" y="0" width="7" height="6"></rect>
                                <rect id="Rectangle-Copy-7" x="24" y="0" width="7" height="6"></rect>
                                <rect id="Rectangle-Copy-8" x="16" y="0" width="7" height="6"></rect>
                                <rect id="Rectangle-Copy-9" x="8" y="0" width="7" height="6"></rect>
                                <rect id="Rectangle-Copy-10" x="0" y="0" width="7" height="6"></rect>
                                <rect id="Rectangle-Copy-4" x="48" y="7" width="6" height="6"></rect>
                                <rect id="Rectangle-Copy-5" x="40" y="7" width="7" height="6"></rect>
                                <rect id="Rectangle-Copy-6" x="32" y="7" width="7" height="6"></rect>
                                <rect id="Rectangle-Copy-7" x="24" y="7" width="7" height="6"></rect>
                                <rect id="Rectangle-Copy-8" x="16" y="7" width="7" height="6"></rect>
                                <rect id="Rectangle-Copy-9" x="8" y="7" width="7" height="6"></rect>
                                <rect id="Rectangle-Copy-10" x="0" y="7" width="7" height="6"></rect>
                                <rect id="Rectangle-Copy-4" x="48" y="14" width="6" height="6"></rect>
                                <rect id="Rectangle-Copy-5" x="40" y="14" width="7" height="6"></rect>
                                <rect id="Rectangle-Copy-6" x="32" y="14" width="7" height="6"></rect>
                                <rect id="Rectangle-Copy-7" x="24" y="14" width="7" height="6"></rect>
                                <rect id="Rectangle-Copy-8" x="16" y="14" width="7" height="6"></rect>
                                <rect id="Rectangle-Copy-9" x="8" y="14" width="7" height="6"></rect>
                                <rect id="Rectangle-Copy-10" x="0" y="14" width="7" height="6"></rect>
                                <rect id="Rectangle-Copy-4" x="48" y="21" width="6" height="6"></rect>
                                <rect id="Rectangle-Copy-5" x="40" y="21" width="7" height="6"></rect>
                                <rect id="Rectangle-Copy-6" x="32" y="21" width="7" height="6"></rect>
                                <rect id="Rectangle-Copy-7" x="24" y="21" width="7" height="6"></rect>
                                <rect id="Rectangle-Copy-8" x="16" y="21" width="7" height="6"></rect>
                                <rect id="Rectangle-Copy-9" x="8" y="21" width="7" height="6"></rect>
                                <rect id="Rectangle-Copy-10" x="0" y="21" width="7" height="6"></rect>
                                <rect id="Rectangle-Copy-4" x="48" y="28" width="6" height="6"></rect>
                                <rect id="Rectangle-Copy-5" x="40" y="28" width="7" height="6"></rect>
                                <rect id="Rectangle-Copy-6" x="32" y="28" width="7" height="6"></rect>
                                <rect id="Rectangle-Copy-7" x="24" y="28" width="7" height="6"></rect>
                                <rect id="Rectangle-Copy-8" x="16" y="28" width="7" height="6"></rect>
                                <rect id="Rectangle-Copy-9" x="8" y="28" width="7" height="6"></rect>
                                <rect id="Rectangle-Copy-10" x="0" y="28" width="7" height="6"></rect>
                            </g>
                            <rect id="Rectangle" fill="#FFFFFF" x="1" y="1" width="54" height="3"></rect>
                        </g>
                    </g>
                </g>
            </g>
        </g>
    </g>
</svg>