<?xml version="1.0" encoding="UTF-8"?>
<svg width="40px" height="38px" viewBox="0 0 40 38" version="1.1" xmlns="http://www.w3.org/2000/svg" xmlns:xlink="http://www.w3.org/1999/xlink">
    <!-- Generator: Sketch 53.2 (72643) - https://sketchapp.com -->
    <title>Search Glass</title>
    <desc>Created with Sketch.</desc>
    <g id="Page-1" stroke="none" stroke-width="1" fill="none" fill-rule="evenodd">
        <g id="Cookbook" transform="translate(-210.000000, -664.000000)">
            <g id="Bottom-Buttons" transform="translate(0.000000, 630.000000)">
                <g id="Bottom-Row-Buttons" transform="translate(14.000000, 20.000000)">
                    <g id="Explore" transform="translate(186.000000, 14.000000)">
                        <g id="Search-Glass" transform="translate(10.000000, 0.000000)">
                            <path d="M12,24 C5.372583,24 0,18.627417 0,12 C0,5.372583 5.372583,0 12,0 C18.627417,0 24,5.372583 24,12 C24,18.627417 18.627417,24 12,24 Z M12,22 C17.5228475,22 22,17.5228475 22,12 C22,6.4771525 17.5228475,2 12,2 C6.4771525,2 2,6.4771525 2,12 C2,17.5228475 6.4771525,22 12,22 Z" id="Glass" fill="#000000"></path>
                            <path d="M20.5,20 L37.5,35.5" id="Line-7" stroke="#000000" stroke-width="3" stroke-linecap="square"></path>
                        </g>
                    </g>
                </g>
            </g>
        </g>
    </g>
</svg>