<?xml version="1.0" encoding="UTF-8"?>
<svg width="34px" height="51px" viewBox="0 0 34 51" version="1.1" xmlns="http://www.w3.org/2000/svg" xmlns:xlink="http://www.w3.org/1999/xlink">
    <!-- Generator: Sketch 53.2 (72643) - https://sketchapp.com -->
    <title>Pantry Icon</title>
    <desc>Created with Sketch.</desc>
    <g id="Page-1" stroke="none" stroke-width="1" fill="none" fill-rule="evenodd">
        <g id="Cookbook" transform="translate(-22.000000, -649.000000)" stroke="#000000">
            <g id="Bottom-Buttons" transform="translate(0.000000, 630.000000)">
                <g id="Bottom-Row-Buttons" transform="translate(14.000000, 20.000000)">
                    <g id="Pantry">
                        <g id="Pantry-Icon" transform="translate(8.919434, 0.464355)">
                            <path d="M0,0 L32,0 L32,49 L0,49 L0,0 Z M3,2 C2.44771525,2 2,2.44771525 2,3 L2,46 C2,46.5522847 2.44771525,47 3,47 L14,47 C14.5522847,47 15,46.5522847 15,46 L15,3 C15,2.44771525 14.5522847,2 14,2 L3,2 Z M18,2 C17.4477153,2 17,2.44771525 17,3 L17,46 C17,46.5522847 17.4477153,47 18,47 L29,47 C29.5522847,47 30,46.5522847 30,46 L30,3 C30,2.44771525 29.5522847,2 29,2 L18,2 Z" id="Combined-Shape" fill="#000000" stroke-linejoin="round"></path>
                            <path d="M11.5,16.5 L11.5,30.5" id="Line" stroke-linecap="round"></path>
                            <path d="M20.5,16.5 L20.5,30.5" id="Line-Copy" stroke-linecap="round"></path>
                        </g>
                    </g>
                </g>
            </g>
        </g>
    </g>
</svg>